<mxfile host="app.diagrams.net" modified="2022-10-04T05:06:30.242Z" agent="5.0 (Windows NT 10.0; Win64; x64) AppleWebKit/537.36 (KHTML, like Gecko) Chrome/106.0.0.0 Safari/537.36" etag="OqLuu4fqXtPXj_CU-w4r" version="20.3.0" type="github">
  <diagram id="kgpKYQtTHZ0yAKxKKP6v" name="Page-1">
    <mxGraphModel dx="1422" dy="794" grid="1" gridSize="10" guides="1" tooltips="1" connect="1" arrows="1" fold="1" page="1" pageScale="1" pageWidth="850" pageHeight="1100" math="0" shadow="0">
      <root>
        <mxCell id="0" />
        <mxCell id="1" parent="0" />
        <mxCell id="Ha6prKXrfFAJAF-Eu3m9-6" value="DB" style="shape=umlLifeline;perimeter=lifelinePerimeter;container=1;collapsible=0;recursiveResize=0;rounded=0;shadow=0;strokeWidth=1;" parent="1" vertex="1">
          <mxGeometry x="710" y="70" width="120" height="390" as="geometry" />
        </mxCell>
        <mxCell id="Ha6prKXrfFAJAF-Eu3m9-72" value="" style="shape=note;whiteSpace=wrap;html=1;backgroundOutline=1;darkOpacity=0.05;" parent="Ha6prKXrfFAJAF-Eu3m9-6" vertex="1">
          <mxGeometry x="-150" y="90" width="270" height="170" as="geometry" />
        </mxCell>
        <mxCell id="Ha6prKXrfFAJAF-Eu3m9-7" value="" style="points=[];perimeter=orthogonalPerimeter;rounded=0;shadow=0;strokeWidth=1;" parent="Ha6prKXrfFAJAF-Eu3m9-6" vertex="1">
          <mxGeometry x="45" y="80" width="10" height="310" as="geometry" />
        </mxCell>
        <mxCell id="Ha6prKXrfFAJAF-Eu3m9-76" value="cronjobs or event" style="text;html=1;strokeColor=none;fillColor=none;align=center;verticalAlign=middle;whiteSpace=wrap;rounded=0;" parent="Ha6prKXrfFAJAF-Eu3m9-6" vertex="1">
          <mxGeometry x="60" y="220" width="60" height="30" as="geometry" />
        </mxCell>
        <mxCell id="3nuBFxr9cyL0pnOWT2aG-1" value="User" style="shape=umlLifeline;perimeter=lifelinePerimeter;container=1;collapsible=0;recursiveResize=0;rounded=0;shadow=0;strokeWidth=1;" parent="1" vertex="1">
          <mxGeometry x="120" y="80" width="100" height="350" as="geometry" />
        </mxCell>
        <mxCell id="3nuBFxr9cyL0pnOWT2aG-2" value="" style="points=[];perimeter=orthogonalPerimeter;rounded=0;shadow=0;strokeWidth=1;" parent="3nuBFxr9cyL0pnOWT2aG-1" vertex="1">
          <mxGeometry x="45" y="70" width="10" height="280" as="geometry" />
        </mxCell>
        <mxCell id="3nuBFxr9cyL0pnOWT2aG-5" value="Blockchain" style="shape=umlLifeline;perimeter=lifelinePerimeter;container=1;collapsible=0;recursiveResize=0;rounded=0;shadow=0;strokeWidth=1;" parent="1" vertex="1">
          <mxGeometry x="300" y="80" width="100" height="300" as="geometry" />
        </mxCell>
        <mxCell id="3nuBFxr9cyL0pnOWT2aG-6" value="" style="points=[];perimeter=orthogonalPerimeter;rounded=0;shadow=0;strokeWidth=1;" parent="3nuBFxr9cyL0pnOWT2aG-5" vertex="1">
          <mxGeometry x="45" y="80" width="10" height="110" as="geometry" />
        </mxCell>
        <mxCell id="3nuBFxr9cyL0pnOWT2aG-8" value="Submit transfer or mint" style="verticalAlign=bottom;endArrow=block;entryX=0;entryY=0;shadow=0;strokeWidth=1;" parent="1" source="3nuBFxr9cyL0pnOWT2aG-2" target="3nuBFxr9cyL0pnOWT2aG-6" edge="1">
          <mxGeometry relative="1" as="geometry">
            <mxPoint x="275" y="160" as="sourcePoint" />
          </mxGeometry>
        </mxCell>
        <mxCell id="3nuBFxr9cyL0pnOWT2aG-9" value="transfer success" style="verticalAlign=bottom;endArrow=block;entryX=1;entryY=0;shadow=0;strokeWidth=1;" parent="1" source="3nuBFxr9cyL0pnOWT2aG-6" edge="1">
          <mxGeometry relative="1" as="geometry">
            <mxPoint x="240" y="200" as="sourcePoint" />
            <mxPoint x="180" y="200" as="targetPoint" />
            <Array as="points">
              <mxPoint x="330" y="200" />
            </Array>
          </mxGeometry>
        </mxCell>
        <mxCell id="Ha6prKXrfFAJAF-Eu3m9-1" value="Data Provider" style="shape=umlLifeline;perimeter=lifelinePerimeter;container=1;collapsible=0;recursiveResize=0;rounded=0;shadow=0;strokeWidth=1;" parent="1" vertex="1">
          <mxGeometry x="540" y="70" width="100" height="400" as="geometry" />
        </mxCell>
        <mxCell id="Ha6prKXrfFAJAF-Eu3m9-14" value="process event transfer" style="endArrow=classic;html=1;exitX=1.2;exitY=0.318;exitDx=0;exitDy=0;exitPerimeter=0;curved=1;" parent="Ha6prKXrfFAJAF-Eu3m9-1" source="Ha6prKXrfFAJAF-Eu3m9-2" target="Ha6prKXrfFAJAF-Eu3m9-1" edge="1">
          <mxGeometry x="0.0291" y="-22" width="50" height="50" relative="1" as="geometry">
            <mxPoint x="-140" y="360" as="sourcePoint" />
            <mxPoint x="110" y="190" as="targetPoint" />
            <Array as="points">
              <mxPoint x="100" y="180" />
            </Array>
            <mxPoint x="20" y="12" as="offset" />
          </mxGeometry>
        </mxCell>
        <mxCell id="Ha6prKXrfFAJAF-Eu3m9-2" value="" style="points=[];perimeter=orthogonalPerimeter;rounded=0;shadow=0;strokeWidth=1;" parent="Ha6prKXrfFAJAF-Eu3m9-1" vertex="1">
          <mxGeometry x="45" y="40" width="10" height="340" as="geometry" />
        </mxCell>
        <mxCell id="Ha6prKXrfFAJAF-Eu3m9-3" value="event transfer watch" style="verticalAlign=bottom;endArrow=block;shadow=0;strokeWidth=1;exitX=0.9;exitY=0.181;exitDx=0;exitDy=0;exitPerimeter=0;" parent="1" source="3nuBFxr9cyL0pnOWT2aG-6" edge="1">
          <mxGeometry relative="1" as="geometry">
            <mxPoint x="410" y="190.0000000000001" as="sourcePoint" />
            <mxPoint x="590" y="190" as="targetPoint" />
            <Array as="points">
              <mxPoint x="580" y="180" />
              <mxPoint x="590" y="190" />
            </Array>
          </mxGeometry>
        </mxCell>
        <mxCell id="Ha6prKXrfFAJAF-Eu3m9-11" value="store event trans" style="endArrow=classic;html=1;rounded=0;exitX=1.4;exitY=0.265;exitDx=0;exitDy=0;exitPerimeter=0;" parent="1" source="Ha6prKXrfFAJAF-Eu3m9-2" target="Ha6prKXrfFAJAF-Eu3m9-6" edge="1">
          <mxGeometry width="50" height="50" relative="1" as="geometry">
            <mxPoint x="400" y="430" as="sourcePoint" />
            <mxPoint x="450" y="380" as="targetPoint" />
            <Array as="points">
              <mxPoint x="670" y="200" />
            </Array>
          </mxGeometry>
        </mxCell>
        <mxCell id="Ha6prKXrfFAJAF-Eu3m9-15" style="edgeStyle=orthogonalEdgeStyle;curved=1;orthogonalLoop=1;jettySize=auto;html=1;entryX=-0.3;entryY=0.416;entryDx=0;entryDy=0;entryPerimeter=0;" parent="1" source="Ha6prKXrfFAJAF-Eu3m9-2" target="Ha6prKXrfFAJAF-Eu3m9-7" edge="1">
          <mxGeometry relative="1" as="geometry" />
        </mxCell>
        <mxCell id="Ha6prKXrfFAJAF-Eu3m9-16" value="change owner" style="edgeLabel;html=1;align=center;verticalAlign=middle;resizable=0;points=[];" parent="Ha6prKXrfFAJAF-Eu3m9-15" vertex="1" connectable="0">
          <mxGeometry x="-0.1266" y="3" relative="1" as="geometry">
            <mxPoint as="offset" />
          </mxGeometry>
        </mxCell>
        <mxCell id="Ha6prKXrfFAJAF-Eu3m9-17" value="" style="endArrow=classic;html=1;curved=1;exitX=0.9;exitY=0.721;exitDx=0;exitDy=0;exitPerimeter=0;" parent="1" source="3nuBFxr9cyL0pnOWT2aG-2" target="Ha6prKXrfFAJAF-Eu3m9-1" edge="1">
          <mxGeometry width="50" height="50" relative="1" as="geometry">
            <mxPoint x="400" y="430" as="sourcePoint" />
            <mxPoint x="450" y="380" as="targetPoint" />
          </mxGeometry>
        </mxCell>
        <mxCell id="Ha6prKXrfFAJAF-Eu3m9-18" value="check already owned token" style="edgeLabel;html=1;align=center;verticalAlign=middle;resizable=0;points=[];" parent="Ha6prKXrfFAJAF-Eu3m9-17" vertex="1" connectable="0">
          <mxGeometry x="-0.1576" y="-2" relative="1" as="geometry">
            <mxPoint as="offset" />
          </mxGeometry>
        </mxCell>
        <mxCell id="Ha6prKXrfFAJAF-Eu3m9-19" value="query" style="endArrow=classic;html=1;curved=1;exitX=1.6;exitY=0.753;exitDx=0;exitDy=0;exitPerimeter=0;" parent="1" source="Ha6prKXrfFAJAF-Eu3m9-2" target="Ha6prKXrfFAJAF-Eu3m9-6" edge="1">
          <mxGeometry width="50" height="50" relative="1" as="geometry">
            <mxPoint x="400" y="430" as="sourcePoint" />
            <mxPoint x="450" y="380" as="targetPoint" />
          </mxGeometry>
        </mxCell>
        <mxCell id="Ha6prKXrfFAJAF-Eu3m9-20" value="" style="endArrow=classic;html=1;rounded=0;entryX=1;entryY=0.9;entryDx=0;entryDy=0;entryPerimeter=0;exitX=0.5;exitY=0.853;exitDx=0;exitDy=0;exitPerimeter=0;" parent="1" source="Ha6prKXrfFAJAF-Eu3m9-2" target="3nuBFxr9cyL0pnOWT2aG-2" edge="1">
          <mxGeometry width="50" height="50" relative="1" as="geometry">
            <mxPoint x="400" y="330" as="sourcePoint" />
            <mxPoint x="450" y="280" as="targetPoint" />
          </mxGeometry>
        </mxCell>
        <mxCell id="Ha6prKXrfFAJAF-Eu3m9-21" value="isOwn" style="edgeLabel;html=1;align=center;verticalAlign=middle;resizable=0;points=[];" parent="Ha6prKXrfFAJAF-Eu3m9-20" vertex="1" connectable="0">
          <mxGeometry x="0.0795" relative="1" as="geometry">
            <mxPoint as="offset" />
          </mxGeometry>
        </mxCell>
        <mxCell id="Ha6prKXrfFAJAF-Eu3m9-44" value="User" style="shape=umlLifeline;perimeter=lifelinePerimeter;container=1;collapsible=0;recursiveResize=0;rounded=0;shadow=0;strokeWidth=1;" parent="1" vertex="1">
          <mxGeometry x="110" y="560" width="100" height="350" as="geometry" />
        </mxCell>
        <mxCell id="Ha6prKXrfFAJAF-Eu3m9-45" value="" style="points=[];perimeter=orthogonalPerimeter;rounded=0;shadow=0;strokeWidth=1;" parent="Ha6prKXrfFAJAF-Eu3m9-44" vertex="1">
          <mxGeometry x="45" y="70" width="10" height="280" as="geometry" />
        </mxCell>
        <mxCell id="Ha6prKXrfFAJAF-Eu3m9-46" value="Blockchain" style="shape=umlLifeline;perimeter=lifelinePerimeter;container=1;collapsible=0;recursiveResize=0;rounded=0;shadow=0;strokeWidth=1;" parent="1" vertex="1">
          <mxGeometry x="290" y="560" width="100" height="300" as="geometry" />
        </mxCell>
        <mxCell id="Ha6prKXrfFAJAF-Eu3m9-47" value="" style="points=[];perimeter=orthogonalPerimeter;rounded=0;shadow=0;strokeWidth=1;" parent="Ha6prKXrfFAJAF-Eu3m9-46" vertex="1">
          <mxGeometry x="45" y="80" width="10" height="110" as="geometry" />
        </mxCell>
        <mxCell id="Ha6prKXrfFAJAF-Eu3m9-48" value="Submit transfer or mint" style="verticalAlign=bottom;endArrow=block;entryX=0;entryY=0;shadow=0;strokeWidth=1;" parent="1" source="Ha6prKXrfFAJAF-Eu3m9-45" target="Ha6prKXrfFAJAF-Eu3m9-47" edge="1">
          <mxGeometry relative="1" as="geometry">
            <mxPoint x="265" y="640" as="sourcePoint" />
          </mxGeometry>
        </mxCell>
        <mxCell id="Ha6prKXrfFAJAF-Eu3m9-49" value="transfer success" style="verticalAlign=bottom;endArrow=block;entryX=1;entryY=0;shadow=0;strokeWidth=1;" parent="1" source="Ha6prKXrfFAJAF-Eu3m9-47" edge="1">
          <mxGeometry relative="1" as="geometry">
            <mxPoint x="230" y="680" as="sourcePoint" />
            <mxPoint x="170" y="680" as="targetPoint" />
            <Array as="points">
              <mxPoint x="320" y="680" />
            </Array>
          </mxGeometry>
        </mxCell>
        <mxCell id="Ha6prKXrfFAJAF-Eu3m9-50" value="Data Provider" style="shape=umlLifeline;perimeter=lifelinePerimeter;container=1;collapsible=0;recursiveResize=0;rounded=0;shadow=0;strokeWidth=1;" parent="1" vertex="1">
          <mxGeometry x="530" y="550" width="100" height="400" as="geometry" />
        </mxCell>
        <mxCell id="Ha6prKXrfFAJAF-Eu3m9-51" value="" style="points=[];perimeter=orthogonalPerimeter;rounded=0;shadow=0;strokeWidth=1;" parent="Ha6prKXrfFAJAF-Eu3m9-50" vertex="1">
          <mxGeometry x="45" y="40" width="10" height="340" as="geometry" />
        </mxCell>
        <mxCell id="Ha6prKXrfFAJAF-Eu3m9-57" style="edgeStyle=orthogonalEdgeStyle;curved=1;orthogonalLoop=1;jettySize=auto;html=1;entryX=1.2;entryY=0.506;entryDx=0;entryDy=0;entryPerimeter=0;exitX=1.2;exitY=0.397;exitDx=0;exitDy=0;exitPerimeter=0;" parent="Ha6prKXrfFAJAF-Eu3m9-50" source="Ha6prKXrfFAJAF-Eu3m9-51" target="Ha6prKXrfFAJAF-Eu3m9-51" edge="1">
          <mxGeometry relative="1" as="geometry">
            <Array as="points">
              <mxPoint x="100" y="175" />
              <mxPoint x="100" y="212" />
            </Array>
          </mxGeometry>
        </mxCell>
        <mxCell id="Ha6prKXrfFAJAF-Eu3m9-58" value="change owner" style="edgeLabel;html=1;align=center;verticalAlign=middle;resizable=0;points=[];" parent="Ha6prKXrfFAJAF-Eu3m9-57" vertex="1" connectable="0">
          <mxGeometry x="-0.1266" y="3" relative="1" as="geometry">
            <mxPoint as="offset" />
          </mxGeometry>
        </mxCell>
        <mxCell id="Ha6prKXrfFAJAF-Eu3m9-54" value="Moralis" style="shape=umlLifeline;perimeter=lifelinePerimeter;container=1;collapsible=0;recursiveResize=0;rounded=0;shadow=0;strokeWidth=1;" parent="1" vertex="1">
          <mxGeometry x="700" y="550" width="100" height="390" as="geometry" />
        </mxCell>
        <mxCell id="Ha6prKXrfFAJAF-Eu3m9-55" value="" style="points=[];perimeter=orthogonalPerimeter;rounded=0;shadow=0;strokeWidth=1;" parent="Ha6prKXrfFAJAF-Eu3m9-54" vertex="1">
          <mxGeometry x="45" y="80" width="10" height="310" as="geometry" />
        </mxCell>
        <mxCell id="Ha6prKXrfFAJAF-Eu3m9-69" value="store event trans" style="endArrow=classic;html=1;exitX=1.3;exitY=0.139;exitDx=0;exitDy=0;exitPerimeter=0;curved=1;entryX=1.3;entryY=0.232;entryDx=0;entryDy=0;entryPerimeter=0;" parent="Ha6prKXrfFAJAF-Eu3m9-54" source="Ha6prKXrfFAJAF-Eu3m9-55" target="Ha6prKXrfFAJAF-Eu3m9-55" edge="1">
          <mxGeometry width="50" height="50" relative="1" as="geometry">
            <mxPoint x="-300" y="-30" as="sourcePoint" />
            <mxPoint x="-250" y="-80" as="targetPoint" />
            <Array as="points">
              <mxPoint x="90" y="150" />
            </Array>
          </mxGeometry>
        </mxCell>
        <mxCell id="Ha6prKXrfFAJAF-Eu3m9-59" value="" style="endArrow=classic;html=1;curved=1;exitX=0.9;exitY=0.721;exitDx=0;exitDy=0;exitPerimeter=0;" parent="1" source="Ha6prKXrfFAJAF-Eu3m9-45" target="Ha6prKXrfFAJAF-Eu3m9-50" edge="1">
          <mxGeometry width="50" height="50" relative="1" as="geometry">
            <mxPoint x="390" y="910" as="sourcePoint" />
            <mxPoint x="440" y="860" as="targetPoint" />
          </mxGeometry>
        </mxCell>
        <mxCell id="Ha6prKXrfFAJAF-Eu3m9-60" value="check already owned token" style="edgeLabel;html=1;align=center;verticalAlign=middle;resizable=0;points=[];" parent="Ha6prKXrfFAJAF-Eu3m9-59" vertex="1" connectable="0">
          <mxGeometry x="-0.1576" y="-2" relative="1" as="geometry">
            <mxPoint as="offset" />
          </mxGeometry>
        </mxCell>
        <mxCell id="Ha6prKXrfFAJAF-Eu3m9-61" value="query activity of event trans" style="endArrow=classic;html=1;curved=1;" parent="1" target="Ha6prKXrfFAJAF-Eu3m9-54" edge="1">
          <mxGeometry width="50" height="50" relative="1" as="geometry">
            <mxPoint x="590" y="910" as="sourcePoint" />
            <mxPoint x="440" y="860" as="targetPoint" />
            <Array as="points">
              <mxPoint x="620" y="910" />
            </Array>
          </mxGeometry>
        </mxCell>
        <mxCell id="Ha6prKXrfFAJAF-Eu3m9-62" value="" style="endArrow=classic;html=1;rounded=0;entryX=1;entryY=0.9;entryDx=0;entryDy=0;entryPerimeter=0;exitX=0.5;exitY=0.853;exitDx=0;exitDy=0;exitPerimeter=0;" parent="1" source="Ha6prKXrfFAJAF-Eu3m9-51" target="Ha6prKXrfFAJAF-Eu3m9-45" edge="1">
          <mxGeometry width="50" height="50" relative="1" as="geometry">
            <mxPoint x="390" y="810" as="sourcePoint" />
            <mxPoint x="440" y="760" as="targetPoint" />
          </mxGeometry>
        </mxCell>
        <mxCell id="Ha6prKXrfFAJAF-Eu3m9-63" value="isOwn" style="edgeLabel;html=1;align=center;verticalAlign=middle;resizable=0;points=[];" parent="Ha6prKXrfFAJAF-Eu3m9-62" vertex="1" connectable="0">
          <mxGeometry x="0.0795" relative="1" as="geometry">
            <mxPoint as="offset" />
          </mxGeometry>
        </mxCell>
        <mxCell id="Ha6prKXrfFAJAF-Eu3m9-64" value="With Moralis&amp;nbsp;" style="text;html=1;align=center;verticalAlign=middle;resizable=0;points=[];autosize=1;strokeColor=none;fillColor=none;" parent="1" vertex="1">
          <mxGeometry x="35" y="475" width="90" height="30" as="geometry" />
        </mxCell>
        <mxCell id="Ha6prKXrfFAJAF-Eu3m9-65" value="" style="endArrow=classic;html=1;rounded=0;exitX=1.3;exitY=0.264;exitDx=0;exitDy=0;exitPerimeter=0;" parent="1" source="Ha6prKXrfFAJAF-Eu3m9-47" target="Ha6prKXrfFAJAF-Eu3m9-54" edge="1">
          <mxGeometry width="50" height="50" relative="1" as="geometry">
            <mxPoint x="400" y="620" as="sourcePoint" />
            <mxPoint x="450" y="570" as="targetPoint" />
          </mxGeometry>
        </mxCell>
        <mxCell id="Ha6prKXrfFAJAF-Eu3m9-66" value="process event" style="edgeLabel;html=1;align=center;verticalAlign=middle;resizable=0;points=[];" parent="Ha6prKXrfFAJAF-Eu3m9-65" vertex="1" connectable="0">
          <mxGeometry x="-0.1034" y="1" relative="1" as="geometry">
            <mxPoint as="offset" />
          </mxGeometry>
        </mxCell>
        <mxCell id="Ha6prKXrfFAJAF-Eu3m9-67" value="webhook" style="endArrow=classic;html=1;rounded=0;exitX=-0.3;exitY=0.274;exitDx=0;exitDy=0;exitPerimeter=0;" parent="1" source="Ha6prKXrfFAJAF-Eu3m9-55" target="Ha6prKXrfFAJAF-Eu3m9-50" edge="1">
          <mxGeometry width="50" height="50" relative="1" as="geometry">
            <mxPoint x="750" y="699" as="sourcePoint" />
            <mxPoint x="450" y="670" as="targetPoint" />
          </mxGeometry>
        </mxCell>
        <mxCell id="Ha6prKXrfFAJAF-Eu3m9-77" value="clearjobs" style="endArrow=classic;html=1;curved=1;exitX=0.525;exitY=0.831;exitDx=0;exitDy=0;exitPerimeter=0;entryX=0.508;entryY=0.895;entryDx=0;entryDy=0;entryPerimeter=0;" parent="1" source="Ha6prKXrfFAJAF-Eu3m9-6" target="Ha6prKXrfFAJAF-Eu3m9-6" edge="1">
          <mxGeometry width="50" height="50" relative="1" as="geometry">
            <mxPoint x="400" y="410" as="sourcePoint" />
            <mxPoint x="450" y="360" as="targetPoint" />
            <Array as="points">
              <mxPoint x="810" y="400" />
            </Array>
          </mxGeometry>
        </mxCell>
      </root>
    </mxGraphModel>
  </diagram>
</mxfile>
